# xmcd
#
# Track frame offsets:
#	150
#	16170
#	31892
#	44025
#	58347
#	73677
#	90655
#	103467
#	119330
#	133007
#	146382
#	163835
#	174522
#	191915
#	211345
#	234635
#	257365
#
# Disc length: 3479 seconds
#
# Revision: 2
# Processed by: cddbd v1.5.2PL0 Copyright (c) Steve Scherf et al.
# Submitted via: audiograbber 1.83.01
#
DISCID=fd0d9511
DTITLE=Various Artist - CDX 089
DYEAR=1994
DGENRE=Country
TTITLE0=Bob Woodruff - Alright
TTITLE1=James House - A real good way to wind up lonesome
TTITLE2=Gart Brooks - Callin' Baton Rouge
TTITLE3=Steve Wariner - Drive
TTITLE4=Mark Collie - Har lovin' woman
TTITLE5=Little Texas - Kick a little
TTITLE6=Dawn Sears - Nothin' but good
TTITLE7=Brooks and Dunn - She's not the cheatin' kind
TTITLE8=David Ball - When the thought of you catches up with me
TTITLE9=Archer and Park - Where there's smoke
TTITLE10=Kim Hill - Wise beyond her tears
TTITLE11=Deborah Allen - Wrong side of love
TTITLE12=Various Artist - For Pete's sake Susie Luchsinger
TTITLE13=Tracy Byrd - Watermelon crawl (Steamin' Sweatin' Summertime Remix)
TTITLE14=Tracy Byrd - Watermelon Crawl (Back Beat Mix)
TTITLE15=Joe Diffie - Interview
TTITLE16=Joe Diffie - Liner
EXTD=
EXTT0=
EXTT1=
EXTT2=
EXTT3=
EXTT4=
EXTT5=
EXTT6=
EXTT7=
EXTT8=
EXTT9=
EXTT10=
EXTT11=
EXTT12=
EXTT13=
EXTT14=
EXTT15=
EXTT16=
PLAYORDER=
